P3
15 15
255
255 255 255 255 255 255 255 255 255 255 255 255 255 255 255 255 255 255 255 255 255 255 255 255 255 255 255 255 255 255 255 255 255 255 255 255 255 255 255 255 255 255 255 255 255 255 255 255 255 255 255 255 255 255 255 255 255 255 255 255 128 64 0 128 64 0 128 64 0 255 255 255 255 255 255 255 255 255 255 255 255 255 255 255 255 255 255 255 255 255 255 255 255 255 255 255 255 255 255 255 255 255 255 255 255 255 255 255 128 64 0 128 64 0 128 64 0 255 255 255 255 255 255 255 255 255 255 255 255 255 255 255 255 255 255 255 255 255 255 255 255 255 255 255 255 255 255 255 255 255 128 64 0 128 64 0 128 64 0 128 64 0 128 64 0 255 255 255 255 255 255 255 255 255 255 255 255 255 255 255 255 255 255 255 255 255 255 255 255 255 255 255 255 255 255 128 64 0 128 64 0 128 64 0 128 64 0 128 64 0 255 255 255 255 255 255 255 255 255 255 255 255 255 255 255 255 255 255 255 255 255 255 255 255 255 255 255 128 64 0 128 64 0 128 64 0 128 64 0 128 64 0 128 64 0 128 64 0 255 255 255 255 255 255 255 255 255 255 255 255 255 255 255 255 255 255 255 255 255 128 64 0 255 255 255 255 255 255 255 255 255 128 64 0 255 255 255 255 255 255 255 255 255 128 64 0 255 255 255 255 255 255 255 255 255 255 255 255 255 255 255 255 255 255 128 64 0 255 255 255 0 0 0 255 255 255 128 64 0 255 255 255 0 0 0 255 255 255 128 64 0 255 255 255 255 255 255 255 255 255 255 255 255 255 255 255 255 255 255 128 64 0 255 255 255 0 0 0 255 255 255 128 64 0 255 255 255 0 0 0 255 255 255 128 64 0 255 255 255 255 255 255 255 255 255 255 255 255 255 255 255 128 64 0 128 64 0 255 255 255 255 255 255 255 255 255 128 64 0 255 255 255 255 255 255 255 255 255 128 64 0 128 64 0 255 255 255 255 255 255 255 255 255 255 255 255 128 64 0 128 64 0 128 64 0 128 64 0 128 64 0 128 64 0 128 64 0 128 64 0 128 64 0 128 64 0 128 64 0 255 255 255 255 255 255 255 255 255 128 64 0 128 64 0 128 64 0 128 64 0 255 255 255 255 255 255 255 255 255 255 255 255 255 255 255 128 64 0 128 64 0 128 64 0 128 64 0 255 255 255 255 255 255 128 64 0 128 64 0 128 64 0 128 64 0 128 64 0 255 255 255 255 255 255 255 255 255 128 64 0 128 64 0 128 64 0 128 64 0 128 64 0 255 255 255 255 255 255 255 255 255 128 64 0 128 64 0 128 64 0 128 64 0 128 64 0 128 64 0 128 64 0 128 64 0 128 64 0 128 64 0 128 64 0 255 255 255 255 255 255 255 255 255 255 255 255 255 255 255 255 255 255 255 255 255 255 255 255 255 255 255 255 255 255 255 255 255 255 255 255 255 255 255 255 255 255 255 255 255 255 255 255 255 255 255 